<?xml version="1.0" encoding="UTF-8" standalone="no"?>
<!-- Created with Inkscape (http://www.inkscape.org/) -->

<svg
   xmlns:dc="http://purl.org/dc/elements/1.1/"
   xmlns:cc="http://creativecommons.org/ns#"
   xmlns:rdf="http://www.w3.org/1999/02/22-rdf-syntax-ns#"
   xmlns:svg="http://www.w3.org/2000/svg"
   xmlns="http://www.w3.org/2000/svg"
   xmlns:sodipodi="http://sodipodi.sourceforge.net/DTD/sodipodi-0.dtd"
   xmlns:inkscape="http://www.inkscape.org/namespaces/inkscape"
   width="32"
   height="32"
   id="svg3040"
   version="1.1"
   inkscape:version="0.48.5 r10040"
   sodipodi:docname="New document 1">
  <defs
     id="defs3042" />
  <sodipodi:namedview
     id="base"
     pagecolor="#ffffff"
     bordercolor="#666666"
     borderopacity="1.0"
     inkscape:pageopacity="0.0"
     inkscape:pageshadow="2"
     inkscape:zoom="18.362679"
     inkscape:cx="13.596565"
     inkscape:cy="14.22864"
     inkscape:document-units="px"
     inkscape:current-layer="layer1"
     showgrid="false"
     inkscape:window-width="1920"
     inkscape:window-height="1000"
     inkscape:window-x="-4"
     inkscape:window-y="-4"
     inkscape:window-maximized="1" />
  <metadata
     id="metadata3045">
    <rdf:RDF>
      <cc:Work
         rdf:about="">
        <dc:format>image/svg+xml</dc:format>
        <dc:type
           rdf:resource="http://purl.org/dc/dcmitype/StillImage" />
        <dc:title></dc:title>
      </cc:Work>
    </rdf:RDF>
  </metadata>
  <g
     inkscape:label="Layer 1"
     inkscape:groupmode="layer"
     id="layer1"
     transform="translate(0,-1020.3622)">
    <path
       style="color:#000000;fill:#005a00;fill-opacity:1;stroke:#005000;stroke-width:1;stroke-linecap:round;stroke-linejoin:miter;stroke-miterlimit:4;stroke-opacity:1;stroke-dasharray:none;stroke-dashoffset:0;marker:none;visibility:visible;display:inline;overflow:visible;enable-background:accumulate"
       d="M 12.59375 1 C 12.53835 1 12.5 1.03835 12.5 1.09375 L 12.5 12.5 L 1.09375 12.5 C 1.03835 12.5 1 12.53835 1 12.59375 L 1 19.40625 C 1 19.46165 1.03835 19.5 1.09375 19.5 L 12.5 19.5 L 12.5 30.90625 C 12.5 30.96165 12.53835 31 12.59375 31 L 19.40625 31 C 19.46165 31 19.5 30.96165 19.5 30.90625 L 19.5 19.5 L 30.90625 19.5 C 30.96165 19.5 31 19.46165 31 19.40625 L 31 12.59375 C 31 12.53835 30.96165 12.5 30.90625 12.5 L 19.5 12.5 L 19.5 1.09375 C 19.5 1.03835 19.46165 1 19.40625 1 L 12.59375 1 z "
       transform="translate(0,1020.3622)"
       id="rect3816-9" />
  </g>
</svg>
