<?xml version="1.0" encoding="UTF-8" standalone="no"?>
<!-- Created with Inkscape (http://www.inkscape.org/) -->

<svg
   xmlns:dc="http://purl.org/dc/elements/1.1/"
   xmlns:cc="http://creativecommons.org/ns#"
   xmlns:rdf="http://www.w3.org/1999/02/22-rdf-syntax-ns#"
   xmlns:svg="http://www.w3.org/2000/svg"
   xmlns="http://www.w3.org/2000/svg"
   xmlns:sodipodi="http://sodipodi.sourceforge.net/DTD/sodipodi-0.dtd"
   xmlns:inkscape="http://www.inkscape.org/namespaces/inkscape"
   id="svg2"
   sodipodi:docname="edit.svg"
   viewBox="0 0 199.99999 200"
   version="1.1"
   inkscape:version="0.91 r13725"
   width="200"
   height="200">
  <defs
     id="defs4">
    <filter
       id="filter3774"
       height="1.2376"
       width="1.2465"
       y="-0.11878"
       x="-0.12324"
       inkscape:collect="always">
      <feGaussianBlur
         id="feGaussianBlur3776"
         stdDeviation="47.403534"
         inkscape:collect="always" />
    </filter>
    <linearGradient
       id="linearGradient3778"
       y2="334.60999"
       gradientUnits="userSpaceOnUse"
       x2="920.79999"
       gradientTransform="matrix(0.16871526,0,0,0.16871526,-12.099219,850.5797)"
       y1="-176.74001"
       x1="413.57001"
       inkscape:collect="always">
      <stop
         id="stop3731"
         style="stop-color:#f1dbdb"
         offset="0" />
      <stop
         id="stop3733"
         style="stop-color:#8a8a8a;stop-opacity:0"
         offset="1" />
    </linearGradient>
    <linearGradient
       id="linearGradient3780"
       y2="-203.97"
       gradientUnits="userSpaceOnUse"
       x2="567.12"
       gradientTransform="matrix(0.16871526,0,0,0.16871526,-12.099219,850.5797)"
       y1="177.02"
       x1="944.56"
       inkscape:collect="always">
      <stop
         id="stop3741"
         style="stop-color:#805050"
         offset="0" />
      <stop
         id="stop3743"
         style="stop-color:#fff3f3"
         offset="1" />
    </linearGradient>
  </defs>
  <sodipodi:namedview
     id="base"
     bordercolor="#666666"
     inkscape:pageshadow="2"
     inkscape:window-y="-4"
     pagecolor="#ffffff"
     inkscape:window-height="1000"
     inkscape:window-maximized="1"
     inkscape:zoom="0.35000001"
     inkscape:window-x="-4"
     showgrid="false"
     borderopacity="1.0"
     inkscape:current-layer="layer1"
     inkscape:cx="-1284.3995"
     inkscape:cy="827.16881"
     inkscape:window-width="1920"
     inkscape:pageopacity="0.0"
     inkscape:document-units="px"
     fit-margin-top="0"
     fit-margin-left="0"
     fit-margin-right="0"
     fit-margin-bottom="0" />
  <g
     id="layer1"
     inkscape:label="Layer 1"
     inkscape:groupmode="layer"
     transform="translate(27.675609,-796.97126)">
    <g
       id="g4180"
       transform="translate(4,8)">
      <path
         inkscape:connector-curvature="0"
         inkscape:export-xdpi="2.3311617"
         transform="matrix(0.16871526,0,0,0.16871526,-6.6454995,806.95044)"
         inkscape:export-filename="/Users/andersbr/rails/coop/public/images/web_decorations/edit.png"
         inkscape:export-ydpi="2.3311617"
         d="M 675.33,54.63 C 629.897,54.5398 593.754,75.453 569.49,95.568 l -13.625,-13.719 -174.62,178.62 16.438,16.562 -404.16,408.53 -3,-0.3125 c 0,0 -0.015,0.78124 0,2.0938 l -1.4063,0.15625 0,166.47 0,131.28 144.84,0 131.47,0 c 12.05,1.6968 22.25,0 22.25,0 l 0,-1.3438 409.81,-404.94 14.125,14.219 176.84,-176.34 -16.094,-16.219 c 39.066,-48.211 80.774,-143.2 -40.5,-265.91 -59.31,-60.004 -112.32,-80.002 -156.54,-80.09 z m -236.22,954.84 c -0.8284,0 -1.5,0.6715 -1.5,1.5 0,0.8284 0.6716,1.5 1.5,1.5 0.8285,0 1.5,-0.6716 1.5,-1.5 0,-0.8285 -0.6715,-1.5 -1.5,-1.5 z"
         style="fill:#040404;filter:url(#filter3774)"
         id="path3747" />
      <path
         inkscape:connector-curvature="0"
         inkscape:export-xdpi="2.3311617"
         inkscape:export-filename="/Users/andersbr/rails/coop/public/images/web_decorations/edit.png"
         sodipodi:nodetypes="cscc"
         inkscape:export-ydpi="2.3311617"
         d="m 83.583221,829.23005 c 0,0 20.333849,-29.68723 50.119259,0.44924 30.07698,30.43466 0.73647,50.76801 0.73647,50.76801 L 83.582136,829.23035 Z"
         style="fill:#805050"
         id="path3623" />
      <path
         inkscape:connector-curvature="0"
         inkscape:export-xdpi="2.3311617"
         inkscape:export-filename="/Users/andersbr/rails/coop/public/images/web_decorations/edit.png"
         sodipodi:nodetypes="cscc"
         inkscape:export-ydpi="2.3311617"
         d="m 83.583221,829.23005 c 0,0 20.333849,-29.68723 50.119259,0.44924 30.07698,30.43466 0.73647,50.76801 0.73647,50.76801 L 83.582136,829.23035 Z"
         style="opacity:0.23361003;fill:url(#linearGradient3780)"
         id="path3737" />
      <path
         inkscape:connector-curvature="0"
         inkscape:export-xdpi="2.3311617"
         inkscape:export-filename="/Users/andersbr/rails/coop/public/images/web_decorations/edit.png"
         inkscape:export-ydpi="2.3311617"
         d="m -8.4847021,922.94403 0,50.23273 50.3757971,0 0,-55.91857 -50.3757971,5.68658 z"
         style="fill:#f2dcb8"
         id="path3625" />
      <circle
         r="0.25307289"
         cy="977.51471"
         cx="67.437973"
         inkscape:export-xdpi="2.3311617"
         inkscape:export-filename="/Users/andersbr/rails/coop/public/images/web_decorations/edit.png"
         inkscape:export-ydpi="2.3311617"
         style="fill:#000000"
         id="path2818" />
      <circle
         r="0.25307289"
         cy="872.4292"
         cx="66.955933"
         inkscape:export-xdpi="2.3311617"
         inkscape:export-filename="/Users/andersbr/rails/coop/public/images/web_decorations/edit.png"
         inkscape:export-ydpi="2.3311617"
         style="fill:#000000"
         id="path2820" />
      <path
         inkscape:connector-curvature="0"
         inkscape:export-xdpi="2.3311617"
         inkscape:export-filename="/Users/andersbr/rails/coop/public/images/web_decorations/edit.png"
         sodipodi:nodetypes="cccscscscccc"
         inkscape:export-ydpi="2.3311617"
         d="m 62.620851,851.49239 -70.3588704,71.12357 -0.5071621,-0.0543 c 0,0 -0.1343486,6.92858 2.655694,10.36253 3.1332552,3.85626 10.1190674,2.41248 10.1190674,2.41248 0,0 -1.9244038,8.67454 6.5114581,17.3513 8.435861,8.67677 19.518339,8.91555 19.518339,8.91555 0,0 -0.239508,5.78821 2.652734,9.16271 2.892255,3.37425 8.677504,2.41023 8.677504,2.41023 l -0.01046,-0.21619 71.530575,-70.67955 -50.787745,-50.78774 z"
         style="fill:#ffba00"
         id="path2842" />
      <path
         inkscape:connector-curvature="0"
         inkscape:export-xdpi="2.3311617"
         inkscape:export-filename="/Users/andersbr/rails/coop/public/images/web_decorations/edit.png"
         inkscape:export-ydpi="2.3311617"
         d="m 102.19479,891.06633 -71.831519,70.52908 c 0.116702,0.006 0.195088,0.0105 0.195088,0.0105 0,0 -0.240268,5.78895 2.651993,9.16345 2.892255,3.37426 8.678244,2.40949 8.678244,2.40949 l -0.01046,-0.21619 71.530574,-70.68201 -11.2143,-11.2143 z"
         style="fill:#cb9605"
         id="path3633" />
      <path
         inkscape:connector-curvature="0"
         inkscape:export-xdpi="2.3311617"
         inkscape:export-filename="/Users/andersbr/rails/coop/public/images/web_decorations/edit.png"
         inkscape:export-ydpi="2.3311617"
         d="m 62.620851,851.49239 -70.3588704,71.12357 -0.5071621,-0.0543 c 0,0 -0.1328463,6.92611 2.6571741,10.36006 3.0994608,3.81457 9.942942,2.45017 10.0911932,2.42003 L 74.334174,863.20685 62.619618,851.4923 Z"
         style="fill:#ffcf4b"
         id="path3638" />
      <path
         inkscape:connector-curvature="0"
         inkscape:export-xdpi="2.3311617"
         inkscape:export-filename="/Users/andersbr/rails/coop/public/images/web_decorations/edit.png"
         inkscape:export-ydpi="2.3311617"
         d="M 57.677501,850.89544 87.135329,820.75926 143.2537,877.27724 113.41599,907.03355 57.677501,850.89544 Z"
         style="fill:#777777"
         id="path3727" />
      <path
         inkscape:connector-curvature="0"
         inkscape:export-xdpi="2.3311617"
         inkscape:export-filename="/Users/andersbr/rails/coop/public/images/web_decorations/edit.png"
         inkscape:export-ydpi="2.3311617"
         d="M 57.677501,850.89544 87.135329,820.75926 143.2537,877.27724 113.41599,907.03355 57.677501,850.89544 Z"
         style="fill:url(#linearGradient3778)"
         id="path3621" />
      <path
         inkscape:connector-curvature="0"
         inkscape:export-xdpi="2.3311617"
         inkscape:export-filename="/Users/andersbr/rails/coop/public/images/web_decorations/edit.png"
         sodipodi:nodetypes="cccc"
         inkscape:export-ydpi="2.3311617"
         d="m -8.482482,951.02788 0,22.14912 24.437516,0 C 9.5612394,963.74172 -1.0213287,954.72824 -8.482482,951.02813 Z"
         style="fill:#333333"
         id="path3627" />
    </g>
  </g>
  <metadata
     id="metadata26">
    <rdf:RDF>
      <cc:Work>
        <dc:format>image/svg+xml</dc:format>
        <dc:type
           rdf:resource="http://purl.org/dc/dcmitype/StillImage" />
        <cc:license
           rdf:resource="http://creativecommons.org/publicdomain/zero/1.0/" />
        <dc:publisher>
          <cc:Agent
             rdf:about="http://openclipart.org/">
            <dc:title>Openclipart</dc:title>
          </cc:Agent>
        </dc:publisher>
        <dc:title>Edit pencil icon</dc:title>
        <dc:date>2011-06-08T15:50:50</dc:date>
        <dc:description>Stubby pencil.</dc:description>
        <dc:source>https://openclipart.org/detail/143629/edit-pencil-icon-by-darth_schmoo</dc:source>
        <dc:creator>
          <cc:Agent>
            <dc:title>darth_schmoo</dc:title>
          </cc:Agent>
        </dc:creator>
        <dc:subject>
          <rdf:Bag>
            <rdf:li>edit</rdf:li>
            <rdf:li>icons</rdf:li>
            <rdf:li>pencil</rdf:li>
            <rdf:li>web icon</rdf:li>
          </rdf:Bag>
        </dc:subject>
      </cc:Work>
      <cc:License
         rdf:about="http://creativecommons.org/publicdomain/zero/1.0/">
        <cc:permits
           rdf:resource="http://creativecommons.org/ns#Reproduction" />
        <cc:permits
           rdf:resource="http://creativecommons.org/ns#Distribution" />
        <cc:permits
           rdf:resource="http://creativecommons.org/ns#DerivativeWorks" />
      </cc:License>
    </rdf:RDF>
  </metadata>
</svg>
